<?xml version="1.0" encoding="utf-8"?>
<!-- Generator: Adobe Illustrator 19.0.1, SVG Export Plug-In . SVG Version: 6.00 Build 0)  -->
<svg version="1.1" id="Capa_1" xmlns="http://www.w3.org/2000/svg" xmlns:xlink="http://www.w3.org/1999/xlink" x="0px" y="0px"
	 viewBox="-41 164.9 512 512" style="enable-background:new -41 164.9 512 512;" xml:space="preserve">
<style type="text/css">
	.st0{fill:#A5DC86;}
</style>
<g>
	<g>
		<path class="st0" d="M396,239.9c-48.4-48.4-112.6-75-181-75c-68.4,0-132.7,26.6-181,75c-48.4,48.4-75,112.6-75,181
			s26.6,132.7,75,181s112.6,75,181,75c68.4,0,132.7-26.6,181-75s75-112.6,75-181S444.4,288.2,396,239.9z M215,646.9
			c-124.6,0-226-101.4-226-226s101.4-226,226-226s226,101.4,226,226S339.6,646.9,215,646.9z"/>
	</g>
</g>
<g>
	<g>
		<path class="st0" d="M337.3,338.7c-5.9-5.9-15.4-5.9-21.2,0L183.6,471.2l-69.7-69.7c-5.9-5.9-15.4-5.9-21.2,0s-5.9,15.4,0,21.2
			L173,503c2.9,2.9,6.8,4.4,10.6,4.4s7.7-1.5,10.6-4.4L337.3,360C343.2,354.1,343.2,344.6,337.3,338.7z"/>
	</g>
</g>
</svg>
