<?xml version="1.0" encoding="utf-8"?>
<!-- Generator: Adobe Illustrator 23.0.6, SVG Export Plug-In . SVG Version: 6.00 Build 0)  -->
<svg version="1.1" id="Layer_1" xmlns="http://www.w3.org/2000/svg" xmlns:xlink="http://www.w3.org/1999/xlink" x="0px" y="0px"
	 viewBox="0 0 32.8 39.2" style="enable-background:new 0 0 32.8 39.2;" xml:space="preserve">
<style type="text/css">
	.st0{fill:url(#SVGID_1_);}
	.st1{fill:#F1F2F2;}
</style>
<linearGradient id="SVGID_1_" gradientUnits="userSpaceOnUse" x1="3.375" y1="20.7586" x2="29.8125" y2="20.7586">
	<stop  offset="0" style="stop-color:#9C2622"/>
	<stop  offset="1" style="stop-color:#6E0D33"/>
</linearGradient>
<path class="st0" d="M28.2,23.4L28.2,23.4c1-1.9,1.6-4,1.6-6.3c0-7.3-5.9-13.2-13.2-13.2S3.4,9.7,3.4,17c0,2.3,0.6,4.5,1.6,6.3h0
	l0,0c0.4,0.8,11.6,14.3,11.6,14.3L28.2,23.4z"/>
<g>
	<g>
		<g>
			<g>
				<path class="st1" d="M16.2,14.7c0.2,0,0.4,0,0.7,0l0-0.7c-0.3,0-0.5,0-0.8,0L16.2,14.7z M16.2,14.7"/>
				<path class="st1" d="M11.8,18.8l0.7,0c0-1.8,1.2-3.5,3-4l-0.2-0.7C13.3,14.8,11.9,16.7,11.8,18.8L11.8,18.8z M11.8,18.8"/>
			</g>
		</g>
		<g>
			<g>
				<path class="st1" d="M19,25.4h-4.9l-2.3-3c-0.8-1-1.2-2.3-1.2-3.7v-0.1c0-3.3,2.7-6,6-6s6,2.7,6,6v0.1c0,1.3-0.4,2.6-1.2,3.7
					L19,25.4z M14.7,25.1h3.7l2.4-3c0.7-0.9,1.1-2.1,1.1-3.2v-0.1c0-2.9-2.4-5.3-5.3-5.3c-2.9,0-5.3,2.4-5.3,5.3v0.1
					c0,1.2,0.4,2.3,1.1,3.2L14.7,25.1z"/>
			</g>
			<g>
				<g>
					<path class="st1" d="M15.1,19.1h1.2v6h0.6v-6H18v6h0.6v-6.3L17.2,16c-0.1-0.3-0.4-0.4-0.7-0.4c-0.3,0-0.6,0.2-0.7,0.4l-1.4,2.8
						v6.3l0.6,0V19.1z M16.4,16.3c0.1-0.1,0.3-0.1,0.3,0l1.1,2.3h-2.6L16.4,16.3z"/>
				</g>
			</g>
		</g>
		<path class="st1" d="M14.1,25.4v1.4c0,1.4,1.1,2.5,2.5,2.5c1.4,0,2.5-1.1,2.5-2.5v-1.4l0,0L14.1,25.4L14.1,25.4z M14.7,25.6h3.7
			v0.6h-3.7V25.6z M18.4,26.9c0,1-0.8,1.8-1.8,1.8c-1,0-1.8-0.8-1.8-1.8H18.4z"/>
	</g>
	<rect x="7.7" y="13.4" transform="matrix(0.3941 -0.9191 0.9191 0.3941 -9.0146 16.6305)" class="st1" width="0.7" height="3.4"/>
	<rect x="10.9" y="9.3" transform="matrix(0.7772 -0.6292 0.6292 0.7772 -4.4643 9.534)" class="st1" width="0.7" height="3.4"/>
	<rect x="16.2" y="7.9" class="st1" width="0.7" height="3.4"/>
	<g>
		
			<rect x="24.7" y="13.4" transform="matrix(-0.3941 -0.9191 0.9191 -0.3941 21.0405 44.1754)" class="st1" width="0.7" height="3.4"/>
		
			<rect x="21.6" y="9.3" transform="matrix(-0.7772 -0.6292 0.6292 -0.7772 32.0527 33.4915)" class="st1" width="0.7" height="3.4"/>
	</g>
</g>
</svg>
