<?xml version="1.0" encoding="utf-8"?>
<!-- Generator: Adobe Illustrator 23.0.6, SVG Export Plug-In . SVG Version: 6.00 Build 0)  -->
<svg version="1.1" id="Layer_1" xmlns="http://www.w3.org/2000/svg" xmlns:xlink="http://www.w3.org/1999/xlink" x="0px" y="0px"
	 viewBox="0 0 280 285" style="enable-background:new 0 0 280 285;" xml:space="preserve">
<style type="text/css">
	.st0{fill:#FED402;}
	.st1{fill:#DA291C;}
</style>
<g>
	<circle class="st0" cx="138.9" cy="142.2" r="131.8"/>
	<path class="st1" d="M190.5,127.4c-0.5-1.1-2.1-1-2.4,0.2c-0.8,4.1-2.8,9.8-8.1,13.5c-2.8,1.9-5.6,2.7-7.7,3
		c0-7.4-0.6-36.9-23.1-60.4c-10-10.5-20.9-16.2-28.8-19.4c-1.4-0.6-2.8,0.6-2.7,2c0.4,4.8,0.6,11.2-0.7,18.6
		c-5,30-26.2,36.8-33.2,61.5c-5.2,18.4-1.9,44.5,15.2,60.1c18.5,16.9,48.6,17.2,68.8,4.8C192.9,196,203.8,160.4,190.5,127.4
		L190.5,127.4z M190.5,127.4"/>
</g>
</svg>
