<?xml version="1.0" encoding="utf-8"?>
<!-- Generator: Adobe Illustrator 23.0.6, SVG Export Plug-In . SVG Version: 6.00 Build 0)  -->
<svg version="1.1" id="Layer_1" xmlns="http://www.w3.org/2000/svg" xmlns:xlink="http://www.w3.org/1999/xlink" x="0px" y="0px"
	 viewBox="0 0 152 65.7" style="enable-background:new 0 0 152 65.7;" xml:space="preserve">
<style type="text/css">
	.st0{fill:#9C2823;}
	.st1{fill:#6E0D33;}
	.st2{fill:url(#SVGID_1_);}
	.st3{fill:url(#SVGID_2_);}
	.st4{fill:url(#SVGID_3_);}
	.st5{fill:url(#SVGID_4_);}
	.st6{fill:url(#SVGID_5_);}
	.st7{fill:url(#SVGID_6_);}
	.st8{fill:url(#SVGID_7_);}
	.st9{fill:url(#SVGID_8_);}
	.st10{fill:url(#SVGID_9_);}
	.st11{fill:url(#SVGID_10_);}
</style>
<g>
	<g>
		<g>
			<g>
				<path class="st0" d="M23,33.3c1,0.4,1.7,1.1,2.3,1.9c0.5,0.8,0.8,1.8,0.8,2.9c0,1.1-0.3,2.1-0.8,2.9c-0.5,0.8-1.3,1.4-2.3,1.9
					c-1,0.4-2.1,0.7-3.5,0.7h-3.4v4.4h-2.8V32.7h6.3C20.9,32.7,22,32.9,23,33.3z M22.2,40.3c0.6-0.5,1-1.3,1-2.2s-0.3-1.7-1-2.2
					c-0.6-0.5-1.6-0.8-2.8-0.8h-3.3v6.1h3.3C20.7,41.1,21.6,40.9,22.2,40.3z"/>
				<path class="st0" d="M40.2,45.5v2.4H28.7V32.7h11.1V35h-8.3v4h7.4v2.3h-7.4v4.2H40.2z"/>
				<path class="st0" d="M48.9,41.5h-2.8v6.4h-2.8V32.7h2.8v6.4H49l4.4-6.4h3l-5.2,7.4l5.4,7.9h-3.2L48.9,41.5z"/>
				<path class="st1" d="M83.1,32.7h2.8v10.8L94,32.7h2.6v15.2h-2.8V37.1l-8.2,10.8h-2.6V32.7z"/>
				<path class="st1" d="M115.9,45.5v5.6h-2.6v-3.2h-11.7v3.2H99l0-5.6h0.7c1,0,1.6-0.8,2-2.1c0.4-1.4,0.6-3.3,0.7-5.9l0.2-4.8h11.2
					v12.8H115.9z M104.4,42.7c-0.2,1.3-0.6,2.3-1.2,2.8h7.7V35.1h-6l-0.1,2.7C104.8,39.7,104.6,41.4,104.4,42.7z"/>
				<path class="st1" d="M130,45.5v2.4h-11.4V32.7h11.1V35h-8.3v4h7.4v2.3h-7.4v4.2H130z"/>
				<path class="st1" d="M144.6,32.7v15.2h-2.8v-4.2h-3.8h-0.3l-2.8,4.2h-3l3.3-4.7c-1.1-0.4-1.9-1-2.4-1.9
					c-0.6-0.8-0.9-1.9-0.9-3.1c0-1.2,0.3-2.2,0.8-3c0.5-0.8,1.3-1.5,2.2-1.9c1-0.4,2.1-0.7,3.4-0.7H144.6z M135.7,35.9
					c-0.6,0.5-0.9,1.3-0.9,2.4c0,1,0.3,1.8,0.9,2.3c0.6,0.5,1.5,0.8,2.6,0.8h3.6v-6.3h-3.5C137.2,35.1,136.3,35.3,135.7,35.9z"/>
			</g>
		</g>
		<g>
			<g>
				<g>
					<linearGradient id="SVGID_1_" gradientUnits="userSpaceOnUse" x1="68.6376" y1="23.9549" x2="70.0149" y2="23.9549">
						<stop  offset="0" style="stop-color:#9C2823"/>
						<stop  offset="1" style="stop-color:#6E0D33"/>
					</linearGradient>
					<path class="st2" d="M68.8,24.6c0.4-0.1,0.8-0.1,1.2-0.1l0-1.3c-0.5,0-0.9,0-1.4,0.1L68.8,24.6z M68.8,24.6"/>
					<linearGradient id="SVGID_2_" gradientUnits="userSpaceOnUse" x1="60.9515" y1="27.9071" x2="67.6335" y2="27.9071">
						<stop  offset="0" style="stop-color:#9C2823"/>
						<stop  offset="1" style="stop-color:#6E0D33"/>
					</linearGradient>
					<path class="st3" d="M61,32.1l1.3,0c0-3.3,2.2-6.2,5.4-7.2l-0.4-1.2C63.5,24.8,61,28.2,61,32.1L61,32.1z M61,32.1"/>
				</g>
			</g>
			<g>
				<g>
					<linearGradient id="SVGID_3_" gradientUnits="userSpaceOnUse" x1="58.6085" y1="32.6404" x2="80.3126" y2="32.6404">
						<stop  offset="0" style="stop-color:#9C2823"/>
						<stop  offset="1" style="stop-color:#6E0D33"/>
					</linearGradient>
					<path class="st4" d="M73.9,44.1H65l-4.1-5.4c-1.5-1.9-2.3-4.2-2.3-6.6V32c0-6,4.9-10.9,10.9-10.9c6,0,10.9,4.9,10.9,10.9v0.1
						c0,2.4-0.8,4.7-2.3,6.6L73.9,44.1z M66.1,43.5h6.7l4.3-5.5c1.3-1.7,2-3.8,2-5.9V32c0-5.3-4.3-9.6-9.6-9.6
						c-5.3,0-9.6,4.3-9.6,9.6v0.1c0,2.1,0.7,4.2,2,5.9L66.1,43.5z"/>
				</g>
				<g>
					<g>
						<linearGradient id="SVGID_4_" gradientUnits="userSpaceOnUse" x1="65.6844" y1="34.8817" x2="73.2367" y2="34.8817">
							<stop  offset="0" style="stop-color:#9C2823"/>
							<stop  offset="1" style="stop-color:#6E0D33"/>
						</linearGradient>
						<path class="st5" d="M66.8,32.7h2.2v10.8H70V32.7h2.2v10.8h1.1V32.1l-2.5-5c-0.2-0.5-0.7-0.8-1.3-0.8c-0.5,0-1,0.3-1.3,0.8
							l-2.5,5v11.5l1.1,0V32.7z M69.2,27.5c0.1-0.2,0.5-0.2,0.6,0l2.1,4.1h-4.7L69.2,27.5z"/>
					</g>
				</g>
			</g>
			<linearGradient id="SVGID_5_" gradientUnits="userSpaceOnUse" x1="64.9677" y1="47.5872" x2="73.9479" y2="47.5872">
				<stop  offset="0" style="stop-color:#9C2823"/>
				<stop  offset="1" style="stop-color:#6E0D33"/>
			</linearGradient>
			<path class="st6" d="M65,44.1v2.6c0,2.5,2,4.5,4.5,4.5c2.5,0,4.5-2,4.5-4.5v-2.6l0,0L65,44.1L65,44.1z M66.1,44.5h6.7v1.1h-6.7
				V44.5z M72.8,46.7c0,1.8-1.5,3.3-3.3,3.3c-1.8,0-3.3-1.5-3.3-3.3H72.8z"/>
		</g>
	</g>
	
		<linearGradient id="SVGID_6_" gradientUnits="userSpaceOnUse" x1="26.9459" y1="11.402" x2="28.0907" y2="11.402" gradientTransform="matrix(0.4523 -1.0549 0.9191 0.3941 31.261 50.0468)">
		<stop  offset="0" style="stop-color:#9C2823"/>
		<stop  offset="1" style="stop-color:#6E0D33"/>
	</linearGradient>
	<polygon class="st7" points="57.3,26.1 56.8,27.3 51.1,24.9 51.6,23.7 	"/>
	
		<linearGradient id="SVGID_7_" gradientUnits="userSpaceOnUse" x1="42.7508" y1="25.1959" x2="43.8956" y2="25.1959" gradientTransform="matrix(0.8921 -0.7222 0.6292 0.7772 5.3451 29.8308)">
		<stop  offset="0" style="stop-color:#9C2823"/>
		<stop  offset="1" style="stop-color:#6E0D33"/>
	</linearGradient>
	<polygon class="st8" points="62.3,20.1 61.3,21 57.4,16.1 58.4,15.3 	"/>
	
		<linearGradient id="SVGID_8_" gradientUnits="userSpaceOnUse" x1="65.1488" y1="40.8367" x2="66.2937" y2="40.8367" gradientTransform="matrix(1.1478 0 0 1 -5.8827 -25.2983)">
		<stop  offset="0" style="stop-color:#9C2823"/>
		<stop  offset="1" style="stop-color:#6E0D33"/>
	</linearGradient>
	<rect x="68.9" y="12.4" class="st9" width="1.3" height="6.2"/>
	<g>
		
			<linearGradient id="SVGID_9_" gradientUnits="userSpaceOnUse" x1="41.2851" y1="49.7835" x2="42.4299" y2="49.7835" gradientTransform="matrix(-0.4523 -1.0549 -0.9191 0.3941 149.6003 50.0468)">
			<stop  offset="0" style="stop-color:#9C2823"/>
			<stop  offset="1" style="stop-color:#6E0D33"/>
		</linearGradient>
		<polygon class="st10" points="81.8,26.1 82.3,27.3 88,24.9 87.5,23.7 		"/>
		
			<linearGradient id="SVGID_10_" gradientUnits="userSpaceOnUse" x1="71.0305" y1="51.4724" x2="72.1753" y2="51.4724" gradientTransform="matrix(-0.8921 -0.7222 -0.6292 0.7772 175.5162 29.8308)">
			<stop  offset="0" style="stop-color:#9C2823"/>
			<stop  offset="1" style="stop-color:#6E0D33"/>
		</linearGradient>
		<polygon class="st11" points="76.8,20.1 77.8,21 81.7,16.1 80.7,15.3 		"/>
	</g>
</g>
</svg>
