<?xml version="1.0" encoding="utf-8"?>
<!-- Generator: Adobe Illustrator 23.0.6, SVG Export Plug-In . SVG Version: 6.00 Build 0)  -->
<svg version="1.1" id="Layer_1" xmlns="http://www.w3.org/2000/svg" xmlns:xlink="http://www.w3.org/1999/xlink" x="0px" y="0px"
	 viewBox="0 0 16 16" style="enable-background:new 0 0 16 16;" xml:space="preserve">
<style type="text/css">
	.st0{fill:url(#SVGID_1_);}
	.st1{fill:#F1F2F2;}
</style>
<linearGradient id="SVGID_1_" gradientUnits="userSpaceOnUse" x1="0" y1="8" x2="16" y2="8">
	<stop  offset="0" style="stop-color:#9C2622"/>
	<stop  offset="1" style="stop-color:#6E0D33"/>
</linearGradient>
<rect class="st0" width="16" height="16"/>
<path class="st1" d="M8,0.5c-3,0-5.4,2.4-5.4,5.4V6c0,1.2,0.4,2.4,1.1,3.3L5.8,12h0v1.3c0,1.2,1,2.2,2.2,2.2s2.2-1,2.2-2.2V12h0
	l2.1-2.7C13,8.4,13.4,7.2,13.4,6V5.9C13.4,2.9,11,0.5,8,0.5z M6.8,5.8l1-2.1c0.1-0.1,0.2-0.1,0.3,0l1,2.1H6.8z M9.3,6.3v5.4H8.3V6.3
	H9.3z M7.7,6.3v5.4H6.7l0,0V6.3H7.7z M8,14.9c-0.9,0-1.7-0.7-1.7-1.7h3.3C9.7,14.2,8.9,14.9,8,14.9z M9.7,12.7H6.3v-0.6h3.3V12.7z
	 M12.8,6c0,1.1-0.4,2.1-1,2.9l-1.9,2.5V6L8.6,3.5C8.5,3.2,8.3,3.1,8,3.1S7.5,3.2,7.4,3.5L6.1,6v5.4L4.2,8.9c-0.6-0.8-1-1.9-1-2.9
	V5.9c0-2.6,2.2-4.8,4.8-4.8C10.6,1.1,12.8,3.3,12.8,6L12.8,6z"/>
</svg>
