<?xml version="1.0" encoding="utf-8"?>
<!-- Generator: Adobe Illustrator 19.0.1, SVG Export Plug-In . SVG Version: 6.00 Build 0)  -->
<svg version="1.1" id="Layer_1" xmlns="http://www.w3.org/2000/svg" xmlns:xlink="http://www.w3.org/1999/xlink" x="0px" y="0px"
	 viewBox="-78 201.9 438 438" style="enable-background:new -78 201.9 438 438;" xml:space="preserve">
<style type="text/css">
	.st0{fill:#FFFFFF;}
</style>
<path class="st0" d="M357.9,297.2c-1.7-2.1-4.3-3.2-7-3.2H8.8L-5,221.2c-0.1-0.3-0.1-0.6-0.2-1c-3.2-10.5-12.5-17.6-23.3-17.6h-40.4
	c-5,0-9.1,4.1-9.1,9.1c0,5,4.1,9.1,9.1,9.1h40.4c2.5,0,4.7,1.7,5.7,4.2L37.1,542c0.8,4.3,4.6,7.4,9,7.4h37.8
	c-4.1,4.9-6.7,11.3-6.7,18.2c0,15.5,12.3,28.1,27.4,28.1s27.4-12.6,27.4-28.1c0-7-2.6-13.3-6.7-18.2h104.7
	c-4.1,4.9-6.7,11.3-6.7,18.2c0,15.5,12.3,28.1,27.4,28.1c15.1,0,27.4-12.6,27.4-28.1c0-7-2.6-13.3-6.7-18.2h34.1
	c5,0,9.1-4.1,9.1-9.1c0-5-4.1-9.1-9.1-9.1H53.6l-6.9-36.5h272.7c4.4,0,8.2-3.2,9-7.6l31.5-182.5C360.3,302,359.6,299.3,357.9,297.2z
	 M250.5,557.8c5,0,9.1,4.4,9.1,9.9c0,5.5-4.1,9.9-9.1,9.9c-5,0-9.1-4.4-9.1-9.9C241.4,562.3,245.5,557.8,250.5,557.8z M104.5,557.8
	c5,0,9.1,4.4,9.1,9.9c0,5.5-4.1,9.9-9.1,9.9c-5,0-9.1-4.4-9.1-9.9C95.4,562.3,99.5,557.8,104.5,557.8z M86.2,476.5h-43l-8.6-45.6
	h51.6V476.5z M86.2,412.6h-55l-6.9-36.5h61.9V412.6z M86.2,357.8H21l-8.6-45.6h73.9V357.8z M168.4,476.5h-63.9v-45.6h63.9V476.5z
	 M168.4,412.6h-63.9v-36.5h63.9V412.6z M168.4,357.8h-63.9v-45.6h63.9V357.8z M250.5,476.5h-63.9v-45.6h63.9V476.5z M250.5,412.6
	h-63.9v-36.5h63.9V412.6z M250.5,357.8h-63.9v-45.6h63.9V357.8z M311.7,476.5h-43v-45.6h50.8L311.7,476.5z M322.7,412.6h-54v-36.5
	H329L322.7,412.6z M332.2,357.8h-63.4v-45.6H340L332.2,357.8z"/>
</svg>
