<?xml version="1.0" encoding="utf-8"?>
<!-- Generator: Adobe Illustrator 23.0.6, SVG Export Plug-In . SVG Version: 6.00 Build 0)  -->
<svg version="1.1" id="Layer_1" xmlns="http://www.w3.org/2000/svg" xmlns:xlink="http://www.w3.org/1999/xlink" x="0px" y="0px"
	 viewBox="0 0 122 60" style="enable-background:new 0 0 122 60;" xml:space="preserve">
<style type="text/css">
	.st0{fill-rule:evenodd;clip-rule:evenodd;fill:#757576;}
</style>
<g>
	<path class="st0" d="M19.4,30.6c0,1,0,1.7,0.1,2.7c0.2,1.7,0.6,3.3,1.4,4.8c0.1,0.1,0.1,0.2,0.2,0.3l0.2,0.3
		c0.4,0.6,1.3,1.4,2.1,1.9c1.4,0.9,3.1,1.2,4.7,1c1.6-0.1,3.4-0.5,4.5-1.2c0.2-0.1,0.4-0.2,0.6-0.4c0.4-0.3,1.3-1,1.6-1.4
		c0.7-1,1.3-1.7,1.7-3.1c0.4-1.5,0.4-2.7,0.1-4.2c-0.2-0.9-0.7-1.8-1.3-2.5l-0.8-1c0.1-0.2,0.2-0.3,0.3-0.6c0.3-0.8,0.5-1.2,0.7-2.2
		c0.5-2.6-0.9-4.8-2.9-6.3C31,17.6,28,17.5,26,18.1c-0.2,0.1-0.5,0.2-0.7,0.2c-1.3,0.5-1,0.6-1.8-0.2c-0.8-0.8-2.3-2-3.4-2.2
		c0.2,0.3,0.3,0.4,0.5,0.7c0.6,0.9,1.2,1.8,1.5,2.9c0.2,0.8,0.3,0.8-0.1,1.3c-0.9,1.3-1,2-1.6,3.5c-0.2,0.7-0.4,1.3-0.6,2
		c-0.4,1.5-0.4,2-0.5,3.2C19.4,29.6,19.4,30.4,19.4,30.6L19.4,30.6z M27.1,30.5c-2.4,0.7-3.5,4-1.5,5.8c1.1,0.9,2.5,1.2,3.9,0.4
		c0.7-0.4,1.3-1,1.7-1.7c0.4-0.8,0.4-1.9,0-2.8C30.5,30.7,28.7,30.1,27.1,30.5L27.1,30.5z M25.6,22.6c-2,2.2,0.2,5.6,3.3,4.6
		c1.7-0.6,3.2-3.4,1-5C28.5,21.2,26.6,21.4,25.6,22.6L25.6,22.6z"/>
	<path class="st0" d="M35.6,21c0,0.2,0.2,0.5,0.3,0.7c0.6,1.8,0.5,3.5-0.1,5.3c-0.1,0.3-0.2,0.5-0.3,0.7c0.3,0.3,0.5,0.6,0.7,1
		c0.6,1,1,2,1.2,3.2c0.3,1.4,0.1,2.9-0.3,4.2l-0.4,1.3c-0.8,1.8-1.9,2.5-2.3,3c1,0.6,2.2,0.6,3.2-0.1c2.2-1.5,0.9-3.8,0.9-4.4
		c0-4.9,7.2-4.5,7.3-0.2c0,1.4-0.1,1.9,0.7,2.7c0.2,0.2,1.5,0.5,1.8,0.6c0.5,0.1,1.1,0.1,1.6-0.1c0.3-0.1,0.8-0.4,1.1-0.6
		c2.9-3.5-2-8.4-2.1-8.7l0.7-1.6c0.9-2.1,0.4-4.8-1-6.7c-0.1-0.2-0.2-0.3-0.4-0.4c-1.7-2.1-6.6-3.3-9.3-2.2
		c-0.9,0.4-1.4,0.6-2.2,1.2C36.5,20,35.8,20.7,35.6,21L35.6,21z M38.3,25.5c0,1.3,0.6,2.5,1.9,3.1c2.6,1.2,5.6-1.3,4.4-4.3
		C43.4,21.3,38.3,22.2,38.3,25.5L38.3,25.5z"/>
	<path class="st0" d="M26.5,26.2c0.6,0.5,1.8,0.5,2.5,0c1.7-1.2,1.3-3.6-0.5-3.9C26.1,22,24.6,24.5,26.5,26.2L26.5,26.2z"/>
	<path class="st0" d="M39.1,25.5c0,0.8,0.1,1.4,0.7,2c0.8,0.8,2.7,0.7,3.5-0.1c0.9-0.9,1.1-2.3,0.3-3.3c-1.3-1.7-3.8-0.9-4.3,0.4
		C39.3,24.7,39.1,25.2,39.1,25.5L39.1,25.5z"/>
	<path class="st0" d="M26.6,31.6c-0.8,0.6-1.3,1.5-1.3,2.4c0.1,1.4,1.3,2.5,2.9,2.3c1.4-0.2,2.5-1.4,2.5-2.9
		C30.7,31.4,28.2,30.5,26.6,31.6L26.6,31.6z"/>
	<path class="st0" d="M81.9,20.6c0.3,0.1,2.2,1.5,2.4,3.8c2.2-0.4,5-0.4,6.8,0.9c0.5,0.4,1.1,0.9,1.5,1.3c0.6,0.7,0.7,1.1,1,1.8
		c0.2,0.4,0.4,1.1,0.4,1.5c0.1,0.7,0.1,1.1,0,1.7c-0.2,1.3-0.9,2.9-1.9,3.8c-0.6,0.5-1.7,1.1-2.4,1.3c-1.7,0.5-3.6-0.1-4.6-0.1
		c-0.8,1.4-1.6,2.2-3,3.3c1.5,2.2,6.2,2.6,8.5,1.8c1.2-0.4,2.6-1.1,3.4-2c0.2,0.6,0.4,1.1,0.9,1.6c0.6,0.6,1.5,0.8,2.3,0.5
		c1-0.4,1.6-1.1,1.6-2.2c0-0.6-0.1-1.2-0.1-1.8l-0.1-2.7c0-0.4-0.1-0.5-0.1-0.9c0-1.1,0-2.5-0.1-3.5c-0.2-2.3-1.2-6.5-3.4-7.8
		c-0.2,0.2-0.2,1-1.3,1.5c-1.9,0.9-3.9-1.2-3.1-3.1c0.1-0.3,0.4-0.6,0.5-0.9c-0.5-0.5-2.2-0.8-3-0.9c-0.5-0.1-0.8-0.1-1.3-0.1
		c-1,0-2.9,0.2-3.9,0.5C82.8,20.4,82.2,20.5,81.9,20.6L81.9,20.6z"/>
	<path class="st0" d="M77.4,35c0.1,0.2,0.1,0.6,0.2,0.8c1.4-0.3,3.7-2.7,3.4-5.9c0-0.5,0.1-1.1,0.2-1.6c0.1-0.4,0.4-0.8,0.4-1.2
		c-1-0.1-1.5-0.1-2.3-0.6c-0.6-0.4-0.9-0.9-1.7-1.2C76.1,27.8,76.4,32.5,77.4,35L77.4,35z"/>
	<path class="st0" d="M69.3,20.7c0.1,0.2,0.2,0.3,0.3,0.5c0.9,1.7,0.4,2.7,0.2,4.4c-0.2,1.7-0.6,3.7-0.8,5.6
		c-0.3,2.5-1.2,3.8-2.5,5.7c0.1,0.3,0.6,0.8,0.8,1l0.8,0.8c0.9,0.9,2.9,2,4.1,2.4c2.6,0.8,5.5,0.7,8.1-0.4c0.8-0.3,1.5-0.8,2.2-1.3
		c0.6-0.4,1.4-1.2,1.8-1.7c0.4-0.5,0.6-0.9,1-1.4l0.4-0.7c0.2-0.4,0.9-2.4,0.9-2.7c0-0.8-0.2-1.4-0.7-2.1c-0.7-0.8-3.7-1.3-4.4,1.3
		c-0.5,1.6-1.7,3.1-3.3,3.7c-4.9,1.6-9.8-1.4-8.3-7.1c0.1-0.6,0.4-1.1,0.7-1.6c0.6-1.2,2.1-2.1,3.5-2.5c0.6-0.2,1.4-0.2,2.1-0.2
		c1.1,0.1,2.6,0.7,3.4,1.4c0.8,0.7,1.1,0.9,2.1,0.9c0.4,0,1.4-0.4,1.7-0.7c0.5-0.6,0.7-0.9,0.8-1.4c0-0.2,0-0.4,0-0.6
		c0-0.7-0.5-1.9-1-2.3c-0.1-0.1-0.2-0.1-0.2-0.2c-0.2-0.2-0.4-0.3-0.6-0.4c-1.1-0.8-2.3-1.4-3.8-1.8c-0.7-0.2-2.3-0.4-3.1-0.4
		c-0.3,0-0.5,0.1-0.9,0.1c-0.5,0-2,0.3-2.4,0.4C71.3,19.7,69.6,20.3,69.3,20.7L69.3,20.7z"/>
	<path class="st0" d="M52.1,37.8c0,0,0.2,0.2,0.2,0.2c0.4,0.4,0.8,0.5,1.2,0.6c6.5,2.9,13.8-0.2,15-7.3c0.2-1.6,1.3-7.9,1-9.1
		l-0.2-0.4c0,0,0-0.1,0-0.1c-0.8-1.3-2.8-1.4-4.2-0.9c-0.8,0.3-1.6,1.1-1.7,1.9c-0.3,2-0.8,7.5-1.4,8.9c-0.4,0.9-0.9,1.4-1.7,1.9
		c-0.4,0.3-0.7,0.4-1.3,0.6c-1.4,0.4-3.2-0.1-4.2-1.1c-1.4-1.5-1.4-2.7-1.1-4.5l1.1-7.2c0-0.8-0.3-1.4-0.8-1.8
		c-1.2-1.1-3.1-1.1-4.2,0.2c-0.1,0.1-0.5,0.8-0.5,1c0,0.2,0.2,0.3,0.3,0.5l0.7,1.6c0.6,1.9,0.6,3.8-0.1,5.7
		c-0.3,0.9-0.5,0.4,0.6,1.9c0.4,0.5,0.6,0.9,0.8,1.4C52.5,33.9,52.6,35.5,52.1,37.8L52.1,37.8z"/>
	<path class="st0" d="M39.2,35c0,1.1,0.6,2.3,0.2,3.8c-0.1,0.3-0.1,0.3,0.1,0.8c3.2,6.7,11.6,11.5,18.4,12.8
		c8.6,1.2,16.1-2.6,21.6-9.2c0.5-0.6,1-1.2,1.2-1.9c-2.9,1.1-4.3,1-7,0.8c-0.7,0-3,4-10.2,5.3c-2.4,0.4-5,0.1-7.4-0.5
		c-3.1-0.9-7.2-4.4-8.9-7c-0.4-0.6-0.9-0.1-1.9-1.6c-0.5-0.7-0.4-2.1-0.4-2.9C44.9,32.4,39.6,32,39.2,35L39.2,35z"/>
	<path class="st0" d="M42.3,17.7c2.1,0,3.1,0.5,4.9,1.4c6.5-6.5,15.5-9.4,23.7-4.2c1,0.7,2.4,1.7,3.3,2.7c0.7,0.8,0.6,0.9,2.7,1.1
		c1.3,0.1,2.4,0.5,3.5,0.9c0.4,0.1,0.7,0.4,1,0.5c0-0.2-0.4-1-0.5-1.2C76,10.5,65.7,5.7,56.3,7.9c-5.9,1.4-10.5,4.9-13.4,8.9
		C42.8,17,42.4,17.5,42.3,17.7L42.3,17.7z"/>
	<path class="st0" d="M93.8,18.3c0.5-0.5,1.1-1.3,1.7-1.6c0.6-0.3,1.6,0.1,1.1,1.3l-0.7,1.6c-0.5,1.1-0.6,2.1-1,3.1
		c-0.2,0.6-0.6,1.1-0.9,1.3c-0.4,0.3-0.7,0.4-1.1,0.3c-0.1,0-0.2,0-0.2-0.1c-0.3-0.1-0.5-0.2-0.7-0.4c-0.4-0.3-0.6-0.7-0.6-1.1
		c-0.1-0.4,0-0.9,0.2-1.3C91.9,20.5,93,19,93.8,18.3L93.8,18.3z"/>
	<path class="st0" d="M95.7,22.7l1.2-0.7c0.8-0.4,1.3-0.7,2.1-1.1c0.5-0.2,2.5-0.9,3.1-0.7c0.3,0.1,0.5,0.4,0.5,0.7
		c0,0.4-0.3,0.6-0.6,0.8c-1.3,1-1.6,1.3-2.7,2.6c-0.9,1.1-0.9,1.7-1.1,2c0,0.1-0.1,0.3-0.2,0.3c-0.3-0.5-0.4-1.2-0.8-1.8
		C96.7,24,96.1,23.3,95.7,22.7L95.7,22.7z"/>
</g>
</svg>
