<?xml version="1.0" encoding="utf-8"?>
<!-- Generator: Adobe Illustrator 23.0.6, SVG Export Plug-In . SVG Version: 6.00 Build 0)  -->
<svg version="1.1" id="Layer_1" xmlns="http://www.w3.org/2000/svg" xmlns:xlink="http://www.w3.org/1999/xlink" x="0px" y="0px"
	 viewBox="0 0 512 512" style="enable-background:new 0 0 512 512;" xml:space="preserve">
<style type="text/css">
	.st0{fill:#FFFFFF;}
	.st1{fill:none;stroke:#FFFFFF;stroke-width:16;stroke-miterlimit:10;}
	.st2{fill:none;stroke:#FFFFFF;stroke-width:9;stroke-miterlimit:10;}
</style>
<path class="st0" d="M450,174c4.6-6.6,7.3-14.5,7.3-23.1v-12c3.5-1.3,6-4.7,6-8.6v-2.8c0-25.6-20.8-46.4-46.4-46.4
	c-25.6,0-46.4,20.8-46.4,46.4v2.8c0,4,2.5,7.3,6,8.6v12c0,8.6,2.7,16.5,7.3,23.1c-23,4.7-40.6,24.4-42.1,48.5l-0.6,66.1h-99.2h-84.4
	h-33V166.1l64-64l34.8,32.6c3.4,3.4,60.6,2.1,60.6-5.5c0-7.6-7.2-19.2-12.6-24.5l-66.6-66.6c0,0,0,0-0.1,0
	C191.3,25,170,25,156.8,38.1l-81.3,81.3c-18.9,3.7-33.2,20.3-33.2,40.3v47.5c0,5.1,4.1,9.2,9.2,9.2c5.1,0,9.2-4.1,9.2-9.2v-13.4
	c6.5,4.3,14.3,6.9,22.7,6.9c8.4,0,16.2-2.5,22.7-6.9v98c-0.4,0.2-0.9,0.4-1.3,0.6c-6.8-2.5-14-3.9-21.4-3.9c-8,0-15.7,1.6-22.7,4.4
	v-17.8c0-5.1-4.1-9.2-9.2-9.2s-9.2,4.1-9.2,9.2v29.2c-12.4,11.2-20.2,27.4-20.2,45.4V489c0,5.1,4.1,9.2,9.2,9.2h418.6
	c5.1,0,9.2-4.1,9.2-9.2V335.9c18.4-1.3,33-16.6,33-35.4v-74.9C492.1,200.2,474,178.9,450,174z M416.4,172.9
	c-11.9-0.3-21.5-10-21.5-22v-11.4h44.1v11.4c0,12-9.6,21.8-21.5,22H416.4z M444.2,121.1H426v-20.2
	C435.1,104.1,442,111.7,444.2,121.1z M407.7,100.9v20.2h-18.2C391.7,111.7,398.6,104.1,407.7,100.9z M401.2,306.9
	c12.7,0,22.9,10.3,22.9,22.9s-10.3,22.9-22.9,22.9H122.2c-12.7,0-22.9-10.3-22.9-22.9s10.3-22.9,22.9-22.9H401.2z M393,371.2h8.3
	c2.2,0,4.3-0.2,6.4-0.5v109.2H393V371.2z M81.4,336.2c1.3,8.5,5.2,16.1,10.8,22c-2.3,2.2-5.5,3.5-8.8,3.5c-7.1,0-12.9-5.8-12.9-12.9
	C70.5,342.5,75.2,337.2,81.4,336.2z M156.9,85.8c3.9,3.9,8.5,6.7,13.6,8.3l-49.4,49.4c-4.2-9.8-12.1-17.6-22-21.7l49.6-49.6
	C150.3,77.2,153,81.8,156.9,85.8z M261.1,124.8c0,2.7-1,5.2-2.9,7c-3.9,3.9-10.2,3.9-14.1,0l-42.7-42.7l3.2-3.2
	c3.9-3.9,6.7-8.5,8.3-13.5l45.3,45.3C260.1,119.6,261.1,122.1,261.1,124.8z M191.6,51.1c2.9,2.9,4.5,6.8,4.5,10.9
	c0,3.8-1.3,7.3-3.8,10.1c-0.2,0.2-0.5,0.4-0.7,0.6c-6,6-15.7,6-21.7,0c-6-6-6-15.7,0-21.7c0.1-0.1,0.3-0.3,0.4-0.4
	C176.4,45.1,185.8,45.3,191.6,51.1z M83.4,182.4c-12.5,0-22.7-10.2-22.7-22.7c0-12.5,10.2-22.7,22.7-22.7
	c12.5,0,22.7,10.2,22.7,22.7C106.1,172.2,95.9,182.4,83.4,182.4z M40.5,349.8c0-23.7,19.2-42.9,42.9-42.9c1.5,0,2.9,0.1,4.3,0.2
	c-2.1,3.2-3.8,6.8-5,10.5c-16.9,0.4-30.5,14.2-30.5,31.2c0,17.2,14,31.2,31.2,31.2c9.6,0,18.4-4.3,24.3-11.6
	c4.5,1.7,9.4,2.7,14.5,2.7h4.1v108.7H40.5V349.8z M374.6,479.9h-230v-64.6h107.4c5.1,0,9.2-4.1,9.2-9.2c0-5.1-4.1-9.2-9.2-9.2H144.6
	v-25.7h230V479.9z M426,479.9v-117c6.9-5.2,12.1-12.4,14.7-20.8v137.8H426z M473.8,300.5c0,8.6-6.4,15.7-14.7,16.9v-78
	c0-5.1-4.1-9.2-9.2-9.2c-5.1,0-9.2,4.1-9.2,9.2v57v0v21.2c-5.2-16.8-20.9-29.1-39.5-29.1H393v-49.1c0-5.1-4.1-9.2-9.2-9.2
	c-5.1,0-9.2,4.1-9.2,9.2v49.1H360c0,0,2.2-62.5,0-64.2c0.7-18.3,15.9-33.1,34.4-33.1h22c0.2,0,0.3,0,0.5,0c0.2,0,0.3,0,0.5,0h22
	c19,0,34.4,15.4,34.4,34.4V300.5z"/>
<path class="st0" d="M51.5,253.1c2.4,0,4.8-1,6.5-2.7c1.7-1.7,2.7-4.1,2.7-6.5c0-2.4-1-4.8-2.7-6.5c-1.7-1.7-4.1-2.7-6.5-2.7
	c-2.4,0-4.8,1-6.5,2.7c-1.7,1.7-2.7,4.1-2.7,6.5c0,2.4,1,4.8,2.7,6.5C46.7,252.1,49.1,253.1,51.5,253.1z"/>
<path class="st0" d="M83.4,150.5c-2.4,0-4.8,1-6.5,2.7c-1.7,1.7-2.7,4.1-2.7,6.5c0,2.4,1,4.8,2.7,6.5c1.7,1.7,4.1,2.7,6.5,2.7
	c2.4,0,4.8-1,6.5-2.7c1.7-1.7,2.7-4.1,2.7-6.5c0-2.4-1-4.8-2.7-6.5C88.2,151.5,85.8,150.5,83.4,150.5z"/>
<path class="st0" d="M174.3,68.4c1.7,1.7,4.1,2.7,6.5,2.7c2.4,0,4.8-1,6.5-2.7c1.7-1.7,2.7-4.1,2.7-6.5c0-2.4-1-4.8-2.7-6.5
	c-1.7-1.7-4.1-2.7-6.5-2.7c-2.4,0-4.8,1-6.5,2.7c-1.7,1.7-2.7,4.1-2.7,6.5C171.6,64.3,172.6,66.7,174.3,68.4z"/>
<path class="st0" d="M287.3,415.2c2.4,0,4.8-1,6.5-2.7c1.7-1.7,2.7-4.1,2.7-6.5c0-2.4-1-4.8-2.7-6.5c-1.7-1.7-4.1-2.7-6.5-2.7
	c-2.4,0-4.8,1-6.5,2.7c-1.7,1.7-2.7,4.1-2.7,6.5c0,2.4,1,4.8,2.7,6.5C282.5,414.2,284.9,415.2,287.3,415.2z"/>
<rect x="227.8" y="137" class="st1" width="48.2" height="123.5"/>
<polygon class="st2" points="241,262.9 251.9,262.7 262.7,262.4 257.5,272 252.3,281.5 246.6,272.2 "/>
</svg>
